<?xml version="1.0" encoding="UTF-8"?>
<!-- Generator: visioncortex VTracer 0.6.12 -->
<svg version="1.1" xmlns="http://www.w3.org/2000/svg" width="228" height="228">
<path d="M0 0 C1.1 0 2.1 0 3.3 0 C12.6 0.1 21.7 0.9 30.9 2.2 C30.9 2.9 30.9 3.6 30.9 4.2 C31.7 4.2 32.5 4.1 33.4 4.1 C37.5 4.3 40.7 5.5 44.4 7.1 C45.1 7.3 45.7 7.6 46.4 7.9 C50.1 9.4 53.5 11.1 56.9 13.2 C59.2 14.5 61.5 15.7 63.8 17 C65.8 18.2 67.2 19.5 68.9 21.2 C69.9 21.9 70.9 22.6 71.9 23.2 C76.3 26.6 80.1 30.3 84 34.2 C84.6 34.8 85.2 35.4 85.9 36 C89.1 39.2 91.7 42.2 93.9 46.2 C94.5 47 95.1 47.7 95.8 48.5 C99.2 53 102.1 57.9 103.9 63.2 C104.5 63.6 105.2 63.9 105.9 64.2 C106.6 66 106.6 66 107.3 68.3 C108.2 71.3 109.2 74.2 110.4 77 C119.9 102.4 116.3 132.9 105.9 157.2 C105.6 158 105.3 158.8 105 159.6 C102.9 164.6 100.2 169.2 97.2 173.8 C96.9 174.4 96.5 175.1 96 175.7 C95 177.3 94 178.8 92.9 180.2 C92.2 180.2 91.6 180.2 90.9 180.2 C90.8 180.6 90.8 180.6 90.2 182.5 C88.6 185.8 86.8 187 83.9 189.2 C82.5 190.9 81.2 192.6 79.9 194.2 C78.2 196.1 78.2 196.1 76.9 197.2 C76.2 197.2 75.6 197.2 74.9 197.2 C74.9 197.9 74.9 198.6 74.9 199.2 C71.9 201.4 69.4 203.1 65.9 204.2 C65.9 204.9 65.9 205.6 65.9 206.2 C64 207.2 62.2 208.1 60.3 209 C58.6 209.9 56.9 210.8 55.2 211.6 C54.3 212.1 53.4 212.5 52.5 213 C51.7 213.4 50.8 213.9 50 214.3 C47.9 215.2 47.9 215.2 45.9 215.2 C45.5 215.9 45.2 216.6 44.9 217.2 C42.8 218 42.8 218 40.1 218.7 C39.1 218.9 38.1 219.2 37.1 219.5 C36 219.7 35 220 33.9 220.2 C32.9 220.5 31.8 220.8 30.8 221.1 C29.8 221.3 28.8 221.6 27.8 221.9 C26.8 222.1 25.9 222.4 25 222.6 C-2.2 228.3 -31.2 223.1 -55.1 209.2 C-57.8 207.5 -60.5 205.6 -63.1 203.7 C-65.1 202.2 -65.1 202.2 -68.1 201.2 C-68.7 200.5 -69.2 199.8 -69.8 199.1 C-71.8 196.7 -73.7 194.8 -76.1 192.8 C-79.5 189.9 -82.3 186.8 -85.1 183.2 C-85.8 182.7 -86.4 182.1 -87.1 181.4 C-97.6 170.3 -103.5 154.8 -107.1 140.2 C-107.5 139.1 -107.8 138 -108.2 136.8 C-110.2 129.1 -110.3 121.5 -110.2 113.4 C-110.3 112.4 -110.3 111.4 -110.3 110.4 C-110.2 100.6 -109.7 91.2 -107.2 81.8 C-107 81.1 -106.8 80.4 -106.7 79.7 C-105.8 76.4 -105 74.1 -103.1 71.2 C-102.5 69.2 -102.5 69.2 -102 67.1 C-101.7 65.8 -101.4 64.5 -101.1 63.2 C-100.5 63.2 -99.8 63.2 -99.1 63.2 C-98.9 62.4 -98.6 61.5 -98.3 60.6 C-90.3 38.2 -67.5 21.4 -47.4 10.6 C-42.8 8.4 -38 6.7 -33.2 5.1 C-32.5 4.8 -31.8 4.6 -31.1 4.3 C-20.9 0.9 -10.7 -0.1 0 0 Z M-54.1 21.2 C-54.5 22.2 -54.8 23.2 -55.1 24.2 C-55.8 24.3 -56.6 24.4 -57.3 24.5 C-60.9 25.5 -62.6 27.1 -65.2 29.7 C-67.8 32.1 -70.2 34.3 -73.1 36.2 C-73.1 36.9 -73.1 37.6 -73.1 38.2 C-73.8 38.2 -74.4 38.2 -75.1 38.2 C-81 44.6 -88.4 52.9 -91.1 61.2 C-91.6 61.7 -92.1 62.2 -92.6 62.7 C-94.4 64.5 -95 66 -95.8 68.5 C-96.1 69.3 -96.4 70.2 -96.7 71 C-97 71.9 -97.3 72.8 -97.6 73.7 C-97.9 74.6 -98.2 75.5 -98.6 76.4 C-101.7 85.9 -104.6 95.3 -105.1 105.2 C-105.2 106.2 -105.2 107.1 -105.3 108 C-105.7 122 -103.3 136.3 -98.1 149.2 C-97.9 149.8 -97.9 149.8 -96.9 152.5 C-95 157.2 -93.3 161.3 -90.1 165.2 C-89.5 166.3 -89 167.3 -88.4 168.4 C-86.6 171.5 -84.7 174.6 -82.6 177.6 C-82.1 178.4 -81.5 179.2 -80.9 180.1 C-79 182.4 -77.7 183 -75.1 184.2 C-73.4 186.1 -73.4 186.1 -71.7 188.2 C-69 191.4 -67.1 193 -63.1 194.2 C-62.8 195.2 -62.5 196.2 -62.1 197.2 C-60.1 198.7 -58.1 200 -55.9 201.2 C-54.8 201.9 -53.7 202.6 -52.5 203.3 C-47.8 206 -43.1 208.3 -38.1 210.2 C-37.3 210.6 -36.5 210.9 -35.7 211.3 C-30.8 213.4 -26.4 214.7 -21.1 215.2 C-20.8 215.6 -20.5 215.9 -20.1 216.2 C-17.5 216.7 -14.8 217 -12.1 217.3 C-11.4 217.4 -10.7 217.5 -9.9 217.6 C16.2 220.6 41.7 214.2 63.3 199.6 C63.8 199.2 64.3 198.7 64.9 198.2 C64.9 197.6 64.9 196.9 64.9 196.2 C65.5 196.2 66.2 196.2 66.9 196.2 C66.9 195.6 66.9 194.9 66.9 194.2 C67.6 194.2 68.3 194.1 69.1 194.1 C72.8 193 74.2 191.1 76.9 188.2 C78.1 187.1 79.2 186 80.4 184.8 C83.4 181.9 85.6 178.8 87.9 175.2 C89.5 173.2 91.1 171.1 92.7 169.1 C93.9 167.2 93.9 167.2 93.9 164.2 C94.5 164.2 95.2 164.2 95.9 164.2 C100.5 156 103.4 147.3 105.9 138.2 C106 137.7 106 137.7 106.9 134.8 C110.7 119 111.2 99.8 105.9 84.2 C105.5 83.1 105.1 82 104.8 80.8 C101.5 71.1 97.8 61 90.9 53.2 C90.2 53.2 89.6 53.2 88.9 53.2 C88.6 52.4 88.4 51.5 88.1 50.6 C85.9 44.6 82.8 41.1 77.9 37.2 C77.5 36.8 77.5 36.8 75.5 34.2 C72.5 30.8 69.9 29.4 65.9 27.2 C65.5 26.6 65.2 25.9 64.9 25.2 C63.6 24.4 62.2 23.7 60.8 22.9 C57.9 21.4 55.1 19.7 52.4 17.8 C21.6 -1.5 -24.3 2.8 -54.1 21.2 Z " fill="#000000" transform="translate(112.125,2.75)"/>
<path d="M0 0 C2.2 0.1 2.2 0.1 5 1 C7.1 3.7 7.1 3.7 9 7 C9.5 7.9 10.1 8.8 10.6 9.7 C10.9 10.1 10.9 10.1 12 12 C12.7 13 13.3 14 14 15 C17.7 26.7 15.3 36.2 10 47 C8.5 49.9 8.5 49.9 7 52 C6.3 52 5.7 52 5 52 C4.8 52.5 4.5 53 4.2 53.6 C2.6 56.8 0.8 59.9 -1 63 C-1.7 63 -2.3 63 -3 63 C-3.1 63.5 -3.1 63.5 -3.9 65.8 C-5 69 -5 69 -6 70.9 C-7.1 73.3 -7.4 75.2 -7.6 77.8 C-7.7 78.5 -7.8 79.3 -7.9 80.2 C-7.9 80.8 -7.9 81.4 -8 82 C-6.4 77.8 -4.9 73.6 -3.6 69.2 C-2.4 65.6 -1 63.6 2 61 C3.3 58.7 3.3 58.7 4 57 C4.7 57 5.3 57 6 57 C6.3 55.7 6.7 54.4 7 53 C7.7 53 8.3 53 9 53 C9.7 51 10.3 49 11 47 C11.7 47 12.3 47 13 47 C12.7 46 12.3 45 12 44 C12.2 43.7 12.2 43.7 13 42 C13.7 42 14.3 42 15 42 C16.1 36 17.2 30 18 24 C21.4 28.2 23.3 31.6 22.9 37 C22.7 38.5 22.5 40 22.3 41.5 C22.3 41.9 22.3 41.9 22.1 43.8 C21.5 48.1 20.8 51.4 18 55 C17.3 55 16.7 55 16 55 C15.7 56.1 15.5 57.2 15.2 58.3 C13.6 63.1 13.6 63.1 11 65 C10.3 65 9.7 65 9 65 C8.9 65.3 8.9 65.3 8.3 67 C7.2 69.5 6.1 71.4 4.5 73.7 C-2.2 84.2 -0.3 96.5 2 108 C2.4 110.1 2.8 112.2 3.2 114.4 C3.4 115.3 3.5 116.3 3.7 117.3 C4 120.1 3.7 122.3 3 125 C2.3 125 1.7 125 1 125 C0.7 123.9 0.4 122.7 0.1 121.6 C-0.2 120.4 -0.6 119.2 -1 118 C-1.3 117.8 -1.3 117.8 -3 117 C-3.2 116.8 -3.2 116.8 -4 116 C-4.3 116.2 -4.3 116.2 -6 117 C-10.1 115.5 -13.1 114.2 -16 111 C-16.8 110.5 -17.6 110.1 -18.4 109.6 C-21.1 108 -23 106.3 -25 104 C-25 103.3 -25 102.7 -25 102 C-26 101.7 -27 101.3 -28 101 C-29.3 99.1 -29.3 99.1 -30.6 96.7 C-31 95.9 -31.4 95.1 -31.8 94.3 C-32.2 93.6 -32.6 92.8 -33 92 C-33.3 91.4 -33.7 90.8 -34.1 90.1 C-37.1 83.2 -35.9 72.4 -34.1 65.3 C-31.8 59.7 -28.9 54.6 -25 50 C-24.3 50 -23.7 50 -23 50 C-23.1 50.8 -23.2 51.6 -23.3 52.4 C-24.5 64.5 -23.8 75.6 -17 86 C-15.7 87.4 -14.4 88.7 -13 90 C-13 91.3 -13 92.6 -13 94 C-10 95 -10 95 -6 96 C-6.7 93.4 -7.3 90.7 -8 88 C-8.7 89 -9.3 90 -10 91 C-17.5 82.7 -21.4 73.8 -21.1 62.4 C-20.5 57.1 -18.9 52.5 -16.8 47.6 C-16.5 46.9 -16.2 46.2 -15.9 45.5 C-13.9 41.2 -11.6 38.3 -8 35 C-6.7 32.7 -6.7 32.7 -6 31 C-5.3 31 -4.7 31 -4 31 C-3.8 30.4 -3.6 29.8 -3.4 29.2 C-3.2 28.4 -2.9 27.6 -2.6 26.8 C-2.5 26.4 -2.5 26.4 -1.9 24.4 C-1 22 -1 22 0.1 20 C2.7 14.2 0.9 6.1 0 0 Z M6 21 C5.8 21.9 5.5 22.9 5.3 23.9 C4.1 28.2 2.1 31.9 0 35.9 C-1 38 -1 38 -1 40 C-2 40.3 -3 40.7 -4 41 C-5 43 -6 45 -7 47 C-7.5 47.5 -8 48 -8.5 48.4 C-10.2 50.2 -11.1 51.8 -12.1 53.9 C-12.5 54.6 -12.8 55.3 -13.1 56 C-14.6 59.5 -15.1 62.5 -15.1 66.2 C-15 67.5 -15 68.7 -15 70 C-12.2 68.6 -12 67 -10.9 64.1 C-10.5 63.2 -10.2 62.4 -9.8 61.4 C-9 59 -9 59 -9 56 C-8.5 55.8 -8.5 55.8 -6 55 C-5.8 54.3 -5.5 53.6 -5.2 52.9 C-4 50 -2.8 48.5 -0.6 46.2 C3.8 41.3 7 36.8 7 30 C7.3 27.3 7.6 24.7 8 22 C7.3 21.7 6.7 21.3 6 21 Z M-27 84 C-26.4 87.9 -25.2 90.9 -23.4 94.3 C-23.2 94.8 -23.2 94.8 -22.1 97 C-21.7 97.7 -21.4 98.3 -21 99 C-20.3 99 -19.7 99 -19 99 C-19 99.7 -19 100.3 -19 101 C-18 101.3 -17 101.7 -16 102 C-16 101 -16 100 -16 99 C-17 98.3 -18 97.7 -19 97 C-20.1 95 -21.1 93 -22.1 90.9 C-24.8 85.1 -24.8 85.1 -27 84 Z M-7 97 C-6 99 -6 99 -6 99 Z M-7 107 C-7 107.7 -7 108.3 -7 109 C-6.3 108.7 -5.7 108.3 -5 108 C-5.7 107.7 -6.3 107.3 -7 107 Z " fill="#000000" transform="translate(108,25)"/>
<path d="M0 0 C0.3 1.6 0.7 3.3 1 5 C-2 7 -2 7 -4.1 6.8 C-6 6 -6 6 -8 4 C-7.8 1.9 -7.8 1.9 -7 0 C-4.3 -1.3 -2.8 -0.7 0 0 Z " fill="#000000" transform="translate(97,38)"/>
<path d="M0 0 C0.6 0.2 1.2 0.4 1.8 0.6 C2.4 2.4 2.4 2.4 2.8 4.6 C2.5 5.1 2.5 5.1 0.8 7.6 C-0.2 7.5 -0.2 7.5 -5.2 6.6 C-5.4 4.2 -5.4 4.2 -5.2 1.6 C-2.2 -0.4 -2.2 -0.4 0 0 Z " fill="#000000" transform="translate(150.1875,37.375)"/>
<path d="M0 0 C7.3 6.5 9.8 15.6 11.1 25.1 C11.6 34.5 6.9 42.4 1.3 49.7 C0 51 0 51 -2 51 C-2.3 52 -2.7 53 -3 54 C-3.7 54 -4.3 54 -5 54 C-5 54.7 -5 55.3 -5 56 C-5.7 56.7 -6.3 57.3 -7 58 C-8.5 59.8 -9.9 61.6 -11.4 63.3 C-13 65 -13 65 -15.1 65.9 C-17 67 -17 67 -17.8 69.2 C-18 70 -18.1 70.8 -18.2 71.6 C-18.4 72.4 -18.5 73.3 -18.7 74.1 C-18.8 74.7 -18.9 75.4 -19 76 C-22.2 72 -23.1 69 -23.1 63.9 C-23.1 63.1 -23.1 62.4 -23.1 61.6 C-23.1 60.8 -23.1 60.1 -23.1 59.2 C-23.1 58.5 -23.1 57.7 -23 56.8 C-23 54.9 -23 52.9 -23 51 C-22.3 51 -21.7 51 -21 51 C-20.9 50.6 -20.9 50.6 -20.2 48.4 C-16.8 38.9 -16.8 38.9 -13 37 C-12.3 35.4 -11.6 33.7 -11 32 C-10.3 32 -9.7 32 -9 32 C-9 31.3 -9 30.7 -9 30 C-7.7 28.6 -6.4 27.3 -5 26 C-0.4 19.1 -0.8 11.9 -1 3.9 C-1 1 -1 1 0 0 Z M2 28 C3 30 3 30 3 30 Z M-1 32 C-1.3 32.6 -1.7 33.2 -2 33.9 C-2.4 34.7 -2.9 35.5 -3.3 36.3 C-3.7 37.1 -4.2 37.9 -4.6 38.7 C-5.9 40.8 -7.3 42.3 -9 44 C-9 44.7 -9 45.3 -9 46 C-9.6 46.2 -10.2 46.4 -10.8 46.7 C-13.7 48.4 -14.4 50.2 -15.8 53.3 C-16.3 54.3 -16.7 55.2 -17.1 56.2 C-18.1 59.3 -17.9 60.9 -17 64 C-14.9 60.8 -14.5 58.7 -14 55 C-13.3 55 -12.7 55 -12 55 C-10.5 53.1 -10.5 53.1 -8.8 50.5 C-6 46.5 -3.2 42.6 -0.2 38.8 C1.1 36.9 1.6 35.2 2 33 C1 32.7 0 32.3 -1 32 Z " fill="#000000" transform="translate(133,57)"/>
<path d="M0 0 C2.4 1 3.7 1.6 5.2 3.8 C10.7 17 11.9 27.1 8 41 C7.3 41 6.7 41 6 41 C5.9 41.6 5.8 42.1 5.7 42.7 C4.1 48 -0.2 52.7 -4.6 55.9 C-5.4 56.2 -6.2 56.6 -7 57 C-7.8 57.5 -8.6 58 -9.4 58.5 C-17.1 63 -17.1 63 -20 63 C-20 63.7 -20 64.3 -20 65 C-22.9 67 -24.4 68 -28 68 C-28 68.7 -28 69.3 -28 70 C-28.6 70.1 -29.3 70.2 -29.9 70.3 C-30.6 70.5 -31.3 70.8 -32 71 C-32.3 72 -32.7 73 -33 74 C-35.7 71.3 -35.7 69.7 -36 66 C-34.6 59.1 -32.4 52.5 -28 47 C-27.8 46.7 -27.8 46.7 -26.7 45.3 C-25.5 43.8 -24.3 42.4 -23 41 C-22.3 41 -21.7 41 -21 41 C-21 40.3 -21 39.7 -21 39 C-18.7 36.4 -16.6 34.3 -13.6 32.7 C-7.4 28.6 -3 21.1 -1 14 C-0.4 9.3 -0.1 4.7 0 0 Z M1 28 C0.5 28.8 0.1 29.6 -0.4 30.4 C-4.7 37 -11.1 42.5 -17.1 47.5 C-17.6 47.9 -17.6 47.9 -20 50 C-20 50.7 -20 51.3 -20 52 C-21 52 -22 52 -23 52 C-23.3 53.3 -23.7 54.6 -24 56 C-24.7 56 -25.3 56 -26 56 C-26 57.3 -26 58.6 -26 60 C-25 59.7 -24 59.3 -23 59 C-23 58.3 -23 57.7 -23 57 C-22.3 56.7 -21.6 56.5 -20.8 56.2 C-17.8 54.9 -15.4 53.4 -12.7 51.5 C-12.2 51.2 -12.2 51.2 -10 49.7 C-9.3 49.1 -8.7 48.6 -8 48 C-8 47.3 -8 46.7 -8 46 C-7.4 45.7 -6.7 45.5 -6.1 45.2 C-4 44 -4 44 -3 41 C-2 40 -1 39 0 38 C2.2 34.7 2.2 31.9 2 28 C1.7 28 1.3 28 1 28 Z M-29 63 C-28 65 -28 65 -28 65 Z " fill="#000000" transform="translate(149,80)"/>
<path d="M0 0 C2.1 0.4 2.1 0.4 4 1 C4.4 6.2 4.9 11.4 5.3 16.6 C5.4 18.4 5.6 20.2 5.7 21.9 C7.3 40.8 7.3 40.8 7 50 C6.3 50 5.7 50 5 50 C5 49.3 5 48.7 5 48 C4.3 48 3.7 48 3 48 C0.4 35.2 -1.1 22.9 -1.1 9.8 C-1.1 9 -1.1 8.1 -1.1 7.2 C-1.1 1.1 -1.1 1.1 0 0 Z " fill="#000000" transform="translate(16,102)"/>
<path d="M0 0 C1.3 0 2.6 0 4 0 C4.3 38.4 4.3 38.4 -1 50 C-1.5 50.2 -1.5 50.2 -4 51 C-4.1 43.4 -3.8 35.9 -3.2 28.4 C-3 25.4 -2.7 22.5 -2.5 19.6 C-2.3 17.3 -2.2 15 -2 12.7 C-2 12.1 -2 12.1 -1.7 9.3 C-1.7 8.2 -1.6 7.2 -1.5 6.1 C-1.4 5.1 -1.4 4.2 -1.3 3.2 C-1 1 -1 1 0 0 Z " fill="#000000" transform="translate(209,102)"/>
<path d="M0 0 C3.6 2.9 4.9 4.3 5.6 8.9 C5.6 10.4 5.6 11.9 5.5 13.4 C5.5 14.2 5.5 15.1 5.5 15.9 C5.5 18.5 5.4 21.1 5.4 23.8 C5.4 25.5 5.3 27.2 5.3 28.9 C5.2 39.6 4.7 50.3 4 61 C2.1 60.3 2.1 60.3 0 59 C-3.8 49.7 -2.3 37.3 -2.3 27.5 C-2.2 24.4 -2.3 21.4 -2.3 18.3 C-2.3 16.4 -2.3 14.4 -2.3 12.5 C-2.3 11.6 -2.3 10.7 -2.3 9.7 C-2.3 8.9 -2.3 8.1 -2.3 7.2 C-2.3 6.5 -2.3 5.7 -2.3 5 C-2 3 -2 3 0 0 Z " fill="#000000" transform="translate(27,108)"/>
<path d="M0 0 C0.9 6.8 1.1 13.3 0.9 20.1 C0.9 21.1 0.9 22.1 0.8 23.2 C0.8 25.3 0.8 27.4 0.7 29.6 C0.6 32.9 0.6 36.2 0.5 39.5 C0.4 41.6 0.4 43.7 0.4 45.7 C0.3 46.7 0.3 47.7 0.3 48.7 C0.3 49.6 0.2 50.5 0.2 51.5 C0.2 52.3 0.2 53.1 0.2 53.9 C0 56 0 56 -1 59 C-3.1 59.7 -3.1 59.7 -5 60 C-5.2 52.4 -5.4 44.8 -5.5 37.2 C-5.6 34.6 -5.7 32 -5.7 29.4 C-5.8 25.7 -5.9 22 -6 18.3 C-6 17.1 -6 16 -6.1 14.8 C-6.1 13.7 -6.1 12.6 -6.1 11.5 C-6.2 10.6 -6.2 9.6 -6.2 8.7 C-6 5.7 -5.3 3.6 -4 1 C-2 0 -2 0 0 0 Z " fill="#000000" transform="translate(202,109)"/>
<path d="M0 0 C2.7 2.2 3.9 3.4 4.5 6.9 C4.5 8 4.5 9.1 4.5 10.2 C4.5 11.5 4.5 12.8 4.5 14.1 C4.4 15.4 4.4 16.8 4.4 18.2 C4.4 19.6 4.4 21 4.4 22.4 C4.4 26.1 4.3 29.8 4.3 33.5 C4.2 37.3 4.2 41 4.2 44.8 C4.2 52.2 4.1 59.6 4 67 C2.1 66.6 2.1 66.6 0 66 C-5 56 -2 38.2 -1.7 27.2 C-1.6 24.1 -1.6 20.9 -1.5 17.7 C-1.4 15.7 -1.4 13.7 -1.4 11.7 C-1.3 11.2 -1.3 11.2 -1.3 8.8 C-1.3 8 -1.2 7.1 -1.2 6.2 C-1.2 5.4 -1.2 4.7 -1.2 3.9 C-1 2 -1 2 0 0 Z " fill="#000000" transform="translate(37,115)"/>
<path d="M0 0 C1.3 0.3 2.6 0.7 4 1 C4.4 10.3 4.7 19.5 4.9 28.8 C5 30.3 5 31.8 5.1 33.2 C5.2 37.7 5.3 42.1 5.3 46.5 C5.4 47.9 5.4 49.3 5.4 50.7 C5.5 52.7 5.5 54.7 5.5 56.7 C5.5 57.8 5.6 58.9 5.6 60.1 C5 63 5 63 2.5 65.4 C1.7 65.9 0.8 66.5 0 67 C-2.4 60.5 -2.3 54.3 -2.3 47.5 C-2.3 46.3 -2.3 45.1 -2.3 43.8 C-2.3 41.3 -2.3 38.8 -2.3 36.2 C-2.3 32.4 -2.3 28.5 -2.3 24.6 C-2.3 22.2 -2.3 19.7 -2.3 17.3 C-2.3 16.1 -2.3 15 -2.3 13.8 C-2.3 12.7 -2.3 11.6 -2.3 10.5 C-2.3 9.6 -2.3 8.6 -2.3 7.6 C-2 4.8 -1.2 2.6 0 0 Z " fill="#000000" transform="translate(188,116)"/>
<path d="M0 0 C1.9 0.2 1.9 0.2 4 1 C5.9 4.7 6.2 7.8 6.2 11.9 C6.2 13.1 6.2 14.3 6.3 15.5 C6.2 16.7 6.2 18 6.2 19.3 C6.2 20.6 6.2 21.9 6.2 23.2 C6.2 25.9 6.2 28.7 6.2 31.4 C6.2 34.9 6.2 38.4 6.2 41.9 C6.2 45.3 6.2 48.6 6.2 52 C6.2 53.2 6.2 54.5 6.2 55.8 C6.2 57 6.2 58.1 6.1 59.3 C6.1 60.3 6.1 61.4 6.1 62.4 C6 65 6 65 5 68 C1.1 66.1 1.1 66.1 0 65 C-0.2 63.3 -0.3 61.7 -0.3 60 C-0.4 58.9 -0.4 57.8 -0.4 56.7 C-0.5 56.1 -0.5 56.1 -0.6 53.1 C-0.6 51.8 -0.6 50.6 -0.7 49.3 C-1 39 -1.1 28.7 -1.1 18.4 C-1.1 17.7 -1.1 16.9 -1.1 16.2 C-1.1 14 -1.1 11.9 -1.1 9.7 C-1.1 8.5 -1.1 7.3 -1.1 6 C-1 3 -1 3 0 0 Z " fill="#000000" transform="translate(47,125)"/>
<path d="M0 0 C1 0.3 2 0.7 3 1 C4.3 6.8 4.1 12.5 4.1 18.5 C4.1 19.6 4.1 20.7 4.1 21.8 C4.1 24.1 4.1 26.5 4.1 28.8 C4.1 32.4 4.1 35.9 4.1 39.5 C4.1 41.7 4.1 44 4.1 46.3 C4.1 46.8 4.1 46.8 4.1 49.5 C4.1 55.1 4.1 60.5 3 66 C0.4 68 0.4 68 -2 69 C-3.1 65.7 -3.1 63.4 -3.1 59.9 C-3 58.7 -3 57.4 -3 56.1 C-3 54.8 -3 53.4 -2.9 52 C-2.9 50.6 -2.9 49.2 -2.9 47.8 C-2.9 44.9 -2.8 42 -2.8 39 C-2.7 35.3 -2.7 31.5 -2.6 27.7 C-2.6 24.8 -2.5 21.9 -2.5 19.1 C-2.5 17.7 -2.4 16.3 -2.4 14.9 C-2.4 13 -2.4 11 -2.3 9.1 C-2.3 8 -2.3 6.9 -2.3 5.7 C-2 3 -2 3 0 0 Z " fill="#000000" transform="translate(178,125)"/>
<path d="M0 0 C2.5 1.1 2.5 1.1 5 3 C5.6 5.8 5.6 5.8 5.6 9.2 C5.6 10.5 5.6 11.8 5.6 13.1 C5.5 14.5 5.5 15.9 5.5 17.3 C5.5 18.7 5.5 20.2 5.5 21.6 C5.4 25.3 5.4 29.1 5.3 32.9 C5.3 36.7 5.3 40.6 5.2 44.4 C5.2 51.9 5.1 59.5 5 67 C4.3 67.2 4.3 67.2 1 68 C-0.6 63.8 -1.2 60.3 -1.2 55.8 C-1.2 55.2 -1.2 55.2 -1.3 52.2 C-1.2 50.9 -1.2 49.7 -1.2 48.4 C-1.2 47 -1.2 45.7 -1.2 44.4 C-1.2 41.6 -1.2 38.8 -1.2 36 C-1.2 32.5 -1.2 28.9 -1.2 25.3 C-1.2 21.9 -1.2 18.5 -1.2 15.1 C-1.2 13.8 -1.2 12.5 -1.2 11.2 C-1.2 10 -1.2 8.9 -1.1 7.6 C-1.1 6.6 -1.1 5.6 -1.1 4.5 C-1 2 -1 2 0 0 Z " fill="#000000" transform="translate(59,133)"/>
<path d="M0 0 C1.7 0 3.3 0 5 0 C5 21.8 5 43.6 5 66 C3.3 66 1.7 66 0 66 C-1.1 59.7 -1.1 53.6 -1.1 47.2 C-1.1 46.1 -1.1 44.9 -1.1 43.8 C-1.1 41.4 -1.1 39 -1.1 36.6 C-1.1 33 -1.1 29.4 -1.1 25.8 C-1.1 23.4 -1.1 21.1 -1.1 18.8 C-1.1 17.7 -1.1 16.7 -1.1 15.5 C-1.1 10.3 -0.9 5.2 0 0 Z " fill="#000000" transform="translate(165,134)"/>
<path d="M0 0 C0.7 0.2 0.7 0.2 4 1 C4.9 4.7 5.1 8.1 5.1 11.9 C5.1 13.1 5.1 14.2 5.1 15.4 C5.1 16.7 5.1 17.9 5.1 19.2 C5.1 20.5 5.1 21.7 5.1 23.1 C5.1 26.4 5.1 29.8 5.1 33.2 C5.1 36.7 5.1 40.2 5 43.6 C5 50.4 5 57.2 5 64 C1.2 65.1 1.2 65.1 -1 64 C-1 56 -1 47.9 -1.1 39.9 C-1.1 36.1 -1.1 32.4 -1.1 28.6 C-1.1 25 -1.1 21.4 -1.1 17.8 C-1.1 16.4 -1.1 15.1 -1.1 13.7 C-1.1 11.8 -1.1 9.8 -1.1 7.9 C-1.1 6.8 -1.1 5.7 -1.1 4.6 C-1 2 -1 2 0 0 Z " fill="#000000" transform="translate(71,142)"/>
<path d="M0 0 C0.2 7.5 0.3 15 0.5 22.4 C0.6 25.9 0.6 29.4 0.7 32.8 C0.8 36.8 0.9 40.8 1 44.8 C1 46.1 1 47.3 1.1 48.6 C1.1 49.8 1.1 50.9 1.1 52.1 C1.2 53.1 1.2 54.1 1.2 55.2 C1 58.2 0.4 60.3 -1 63 C-3.1 63.8 -3.1 63.8 -5 64 C-6.8 60.2 -7.2 57.3 -7.2 53.1 C-7.2 51.9 -7.2 50.8 -7.2 49.6 C-7.2 48.3 -7.2 47.1 -7.2 45.8 C-7.2 45.2 -7.2 45.2 -7.2 41.9 C-7.2 38.6 -7.2 35.2 -7.1 31.8 C-7.1 28.3 -7.1 24.8 -7.1 21.4 C-7.1 14.6 -7 7.8 -7 1 C-3.4 -1.1 -3.4 -1.1 0 0 Z " fill="#000000" transform="translate(159,143)"/>
<path d="M0 0 C1.1 6.4 1.1 12.6 1.1 19.1 C1.1 20.2 1.1 21.3 1.1 22.5 C1.1 26.2 1.1 29.8 1.1 33.4 C1.1 35.9 1.1 38.4 1 40.9 C1 46.9 1 53 1 59 C0 59.2 0 59.2 -5 60 C-6.3 57.5 -6.1 55.8 -6.1 53 C-6.2 51.9 -6.2 50.9 -6.2 49.8 C-6.2 48.7 -6.2 47.5 -6.2 46.4 C-6.2 45.2 -6.2 44 -6.2 42.8 C-6.2 40.4 -6.2 37.9 -6.2 35.4 C-6.2 31.6 -6.2 27.9 -6.2 24.1 C-6.2 21.7 -6.2 19.3 -6.2 16.9 C-6.2 15.8 -6.2 14.6 -6.3 13.5 C-6.2 12.4 -6.2 11.4 -6.2 10.3 C-6.2 9.4 -6.2 8.4 -6.2 7.5 C-6 4.8 -5.4 3.2 -4 1 C-2 0 -2 0 0 0 Z " fill="#000000" transform="translate(147,151)"/>
<path d="M0 0 C1.7 0 3.3 0 5 0 C5.8 7.1 6.1 14.1 6.1 21.2 C6.1 22.2 6.1 23.2 6.1 24.3 C6.1 26.4 6.1 28.6 6.1 30.7 C6.1 34 6.1 37.3 6.1 40.6 C6.1 42.7 6.1 44.8 6.1 46.9 C6.1 47.9 6.1 48.8 6.1 49.9 C6.1 50.3 6.1 50.3 6.1 52.6 C6.1 53.4 6.1 54.2 6.1 55 C6 57 6 57 5 59 C3.3 58.7 1.7 58.3 0 58 C-0.9 50.8 -1.1 43.8 -0.9 36.5 C-0.9 35.5 -0.8 34.4 -0.8 33.3 C-0.7 30 -0.6 26.7 -0.6 23.4 C-0.5 21.1 -0.5 18.8 -0.4 16.6 C-0.3 11 -0.1 5.5 0 0 Z " fill="#000000" transform="translate(82,152)"/>
<path d="M0 0 C1 0.3 2 0.7 3 1 C3.9 7 4.2 12.8 4.2 18.8 C4.2 19.7 4.2 20.7 4.2 21.6 C4.2 23.5 4.2 25.4 4.2 27.3 C4.2 30.3 4.2 33.2 4.2 36.1 C4.2 38 4.2 39.8 4.2 41.7 C4.2 42.6 4.2 43.4 4.3 44.3 C4.2 45.2 4.2 46 4.2 46.8 C4.2 47.5 4.2 48.2 4.2 49 C4 51.3 3.2 53 2 55 C0.3 54.7 -1.3 54.3 -3 54 C-3.1 47.4 -3.1 40.9 -3.2 34.3 C-3.2 32.1 -3.2 29.8 -3.2 27.6 C-3.3 24.4 -3.3 21.2 -3.3 18 C-3.3 17 -3.3 16 -3.3 15 C-3.3 9.2 -2.7 5.1 0 0 Z " fill="#000000" transform="translate(132,159)"/>
<path d="M0 0 C1 0.3 2 0.7 3 1 C3.9 6.4 4.1 11.6 4.1 17.1 C4.1 18 4.1 18.8 4.1 19.7 C4 22.4 4 25.1 4 27.8 C4 31.3 4 34.9 3.9 38.4 C3.9 39.2 3.9 40.1 3.9 40.9 C3.9 44.2 3.9 46.8 5 50 C4.2 52.1 4.2 52.1 3 54 C2.5 54.2 2.5 54.2 0 55 C-2.5 52.1 -3.4 50.3 -3.4 46.5 C-3.4 45.6 -3.4 44.7 -3.4 43.8 C-3.4 42.9 -3.3 41.9 -3.3 40.9 C-3.3 40 -3.3 39 -3.3 38 C-3.3 35.9 -3.3 33.8 -3.3 31.7 C-3.3 28.6 -3.2 25.4 -3.2 22.2 C-3.2 20.2 -3.2 18.2 -3.2 16.2 C-3.2 15.2 -3.2 14.3 -3.2 13.3 C-3.1 4.4 -3.1 4.4 -2 1 C-1.3 0.7 -0.7 0.3 0 0 Z " fill="#000000" transform="translate(96,160)"/>
<path d="M0 0 C0.7 0.3 1.3 0.7 2 1 C3.2 6 3.1 11 3.1 16 C3.1 16.9 3.1 17.8 3.1 18.6 C3.1 20.4 3.1 22.2 3.1 24 C3.1 26.8 3.1 29.5 3.1 32.3 C3.1 34 3.1 35.7 3.1 37.5 C3.1 38.3 3.1 39.1 3.1 40 C3.1 45.8 3.1 45.8 2 48 C0.3 47.7 -1.3 47.3 -3 47 C-3.8 42 -4.2 37.1 -4.2 32.1 C-4.2 31.7 -4.2 31.7 -4.3 29.9 C-4.3 28.3 -4.3 26.8 -4.3 25.3 C-4.3 23.7 -4.3 22.2 -4.4 20.6 C-4.4 18.3 -4.4 16.1 -4.4 13.8 C-4.4 13.1 -4.5 12.4 -4.5 11.7 C-4.5 6.5 -3.1 4 0 0 Z " fill="#000000" transform="translate(121,168)"/>
<path d="M0 0 C0.7 0 1.3 0 2 0 C5.5 4.3 5.4 8.3 5.4 13.7 C5.4 14.5 5.4 15.3 5.4 16.2 C5.4 17.9 5.4 19.7 5.3 21.4 C5.3 24.1 5.3 26.7 5.3 29.4 C5.3 31.1 5.3 32.8 5.3 34.5 C5.3 34.9 5.3 34.9 5.3 36.9 C5.3 40.7 5.2 43.7 3 47 C1.3 46.7 -0.3 46.3 -2 46 C-2 44.9 -2 43.8 -2 42.7 C-2 38.6 -2 34.5 -1.9 30.4 C-1.9 28.6 -1.9 26.8 -1.9 25 C-1.9 22.5 -1.9 19.9 -1.9 17.4 C-1.9 16.6 -1.9 15.8 -1.9 15 C-1.9 11.7 -2 9.1 -3 6 C-1.6 2.8 -1.6 2.8 0 0 Z " fill="#000000" transform="translate(107,169)"/>
</svg>
